<svg xmlns="http://www.w3.org/2000/svg" version="1.1" xmlns:xlink="http://www.w3.org/1999/xlink" xmlns:svgjs="http://svgjs.com/svgjs" width="200" height="200"><svg xmlns="http://www.w3.org/2000/svg" width="200" height="200" viewBox="0 0 1000 1000">
<path d="M100.00 730.94 114.81 705.28 100.00 679.62 129.63 679.62 144.44 653.96 129.63 628.30 100.00 628.30 114.81 602.64 100.00 576.98 129.63 576.98 144.44 551.32 159.26 576.98 188.89 576.98 203.70 551.32 188.89 525.66 218.52 525.66 233.33 500.00 218.52 474.34 188.89 474.34 203.70 448.68 188.89 423.02 159.26 423.02 144.44 448.68 129.63 423.02 100.00 423.02 114.81 397.36 100.00 371.70 129.63 371.70 144.44 346.04 129.63 320.38 100.00 320.38 114.81 294.72 100.00 269.06 129.63 269.06 144.44 243.40 159.26 269.06 188.89 269.06 203.70 243.40 188.89 217.74 218.52 217.74 233.33 192.08 248.15 217.74 277.78 217.74 262.96 243.40 277.78 269.06 307.41 269.06 322.22 243.40 337.04 269.06 366.67 269.06 381.48 243.40 366.67 217.74 396.30 217.74 411.11 192.08 396.30 166.42 366.67 166.42 381.48 140.76 366.67 115.10 396.30 115.10 411.11 89.44 425.93 115.10 455.56 115.10 470.37 89.44 455.56 63.78 485.19 63.78 500.00 38.12 500.00 38.12 514.81 63.78 544.44 63.78 529.63 89.44 544.44 115.10 574.07 115.10 588.89 89.44 603.70 115.10 633.33 115.10 618.52 140.76 633.33 166.42 603.70 166.42 588.89 192.08 603.70 217.74 633.33 217.74 618.52 243.40 633.33 269.06 662.96 269.06 677.78 243.40 692.59 269.06 722.22 269.06 737.04 243.40 722.22 217.74 751.85 217.74 766.67 192.08 781.48 217.74 811.11 217.74 796.30 243.40 811.11 269.06 840.74 269.06 855.56 243.40 870.37 269.06 900.00 269.06 885.19 294.72 900.00 320.38 870.37 320.38 855.56 346.04 870.37 371.70 900.00 371.70 885.19 397.36 900.00 423.02 870.37 423.02 855.56 448.68 840.74 423.02 811.11 423.02 796.30 448.68 811.11 474.34 781.48 474.34 766.67 500.00 781.48 525.66 811.11 525.66 796.30 551.32 811.11 576.98 840.74 576.98 855.56 551.32 870.37 576.98 900.00 576.98 885.19 602.64 900.00 628.30 870.37 628.30 855.56 653.96 870.37 679.62 900.00 679.62 885.19 705.28 900.00 730.94 900.00 730.94 870.37 730.94 855.56 756.60 840.74 730.94 811.11 730.94 796.30 756.60 811.11 782.26 781.48 782.26 766.67 807.92 751.85 782.26 722.22 782.26 737.04 756.60 722.22 730.94 692.59 730.94 677.78 756.60 662.96 730.94 633.33 730.94 618.52 756.60 633.33 782.26 603.70 782.26 588.89 807.92 603.70 833.58 633.33 833.58 618.52 859.24 633.33 884.90 603.70 884.90 588.89 910.56 574.07 884.90 544.44 884.90 529.63 910.56 544.44 936.22 514.81 936.22 500.00 961.88 485.19 936.22 455.56 936.22 470.37 910.56 455.56 884.90 425.93 884.90 411.11 910.56 396.30 884.90 366.67 884.90 381.48 859.24 366.67 833.58 396.30 833.58 411.11 807.92 396.30 782.26 366.67 782.26 381.48 756.60 366.67 730.94 337.04 730.94 322.22 756.60 307.41 730.94 277.78 730.94 262.96 756.60 277.78 782.26 248.15 782.26 233.33 807.92 218.52 782.26 188.89 782.26 203.70 756.60 188.89 730.94 159.26 730.94 144.44 756.60 129.63 730.94 Z" stroke-width="0" stroke="#c0ca33" fill="#c0ca33"></path>
</svg><style>@media (prefers-color-scheme: light) { :root { filter: none; } }
</style></svg>